# xmcd CD database file
#
# Track frame offsets:
#	150
#	10803
#	27529
#	40893
#	53966
#	66332
#	80794
#	99384
#
# Disc length: 1476 seconds
#
# Revision: 0
# Processed by: cddbd v1.5.2PL0 Copyright (c) Steve Scherf et al.
# Submitted via: CDex 1.51
#
DISCID=6805c208
DTITLE=Penny Serenade - Penny Serenade
DYEAR=2010
DGENRE=Jazz
TTITLE0=It's Only A Paper Moon [H Arlen, E Y Harburg, B Rose]
TTITLE1=A Sunday Kind Of Love [B Belle, A Leonard, S Rhodes, L Prima]
TTITLE2=I Can't Believe That You're In Love With Me [J McHugh, C Gaskill]
TTITLE3=I Saw Stars [A Goodhart, A Hoffman, M Sigler]
TTITLE4=You're Easy To Dance With [Irving Berlin]
TTITLE5=Kiss The Boys Goodbye [V Schertzinger, F Loesser]
TTITLE6=Bésame Mucho [Consuelo Velazquez]
TTITLE7=Bring It On Down To My House [Bob Wills]
EXTD=YEAR: 2010
EXTT0=
EXTT1=
EXTT2=
EXTT3=
EXTT4=
EXTT5=
EXTT6=
EXTT7=
PLAYORDER=
